<svg xmlns="http://www.w3.org/2000/svg" xmlns:xlink="http://www.w3.org/1999/xlink" viewBox="0 0 57.57 57.57"><defs><style>.cls-1{fill:url(#未命名漸層_25);}.cls-2{fill:#fff;}.cls-3{clip-path:url(#clip-path);}.cls-4{fill:none;stroke:#040000;stroke-miterlimit:10;}.cls-5{fill:#009e96;}</style><linearGradient id="未命名漸層_25" y1="28.79" x2="57.57" y2="28.79" gradientUnits="userSpaceOnUse"><stop offset="0" stop-color="#00c08b"/><stop offset="0.27" stop-color="#00a4ef"/><stop offset="0.53" stop-color="#ffc517"/><stop offset="0.8" stop-color="#f90"/><stop offset="1" stop-color="#ed4848"/></linearGradient><clipPath id="clip-path"><path class="cls-1" d="M28.79,57.57A28.79,28.79,0,1,1,57.57,28.79,28.81,28.81,0,0,1,28.79,57.57Zm0-56.15A27.37,27.37,0,1,0,56.15,28.79,27.4,27.4,0,0,0,28.79,1.42Z"/></clipPath></defs><g id="圖層_2" data-name="圖層 2"><g id="圖層_1-2" data-name="圖層 1"><circle class="cls-2" cx="28.65" cy="28.4" r="27.75"/><path class="cls-1" d="M28.79,57.57A28.79,28.79,0,1,1,57.57,28.79,28.81,28.81,0,0,1,28.79,57.57Zm0-56.15A27.37,27.37,0,1,0,56.15,28.79,27.4,27.4,0,0,0,28.79,1.42Z"/><g class="cls-3"><path class="cls-4" d="M15.68,34l8.48-8.48a6.57,6.57,0,0,1,9.25,0L41.89,34"/></g><path class="cls-5" d="M31.64,22.79a3.29,3.29,0,0,0-5.7,0L20.68,31.9a3.29,3.29,0,0,0,2.85,4.93H34.05a3.28,3.28,0,0,0,2.84-4.93Z"/></g></g></svg>