<?xml version="1.0" encoding="UTF-8"?>
<svg width="84px" height="84px" viewBox="0 0 84 84" version="1.1" xmlns="http://www.w3.org/2000/svg" xmlns:xlink="http://www.w3.org/1999/xlink">
    <title>Group 37</title>
    <defs>
        <circle id="path-1" cx="40" cy="40" r="40"></circle>
        <filter x="-3.8%" y="-3.8%" width="107.5%" height="107.5%" filterUnits="objectBoundingBox" id="filter-2">
            <feOffset dx="0" dy="0" in="SourceAlpha" result="shadowOffsetOuter1"></feOffset>
            <feGaussianBlur stdDeviation="1" in="shadowOffsetOuter1" result="shadowBlurOuter1"></feGaussianBlur>
            <feColorMatrix values="0 0 0 0 0   0 0 0 0 0   0 0 0 0 0  0 0 0 0.5 0" type="matrix" in="shadowBlurOuter1"></feColorMatrix>
        </filter>
        <polygon id="path-3" points="0 0 17 0 17 14 0 14"></polygon>
    </defs>
    <g id="切圖" stroke="none" stroke-width="1" fill="none" fill-rule="evenodd">
        <g id="(網頁視覺v1)-診所薪轉服務" transform="translate(-1091.000000, -1620.000000)">
            <g id="Group-18" transform="translate(1093.000000, 1622.000000)">
                <g id="Oval">
                    <use fill="black" fill-opacity="1" filter="url(#filter-2)" xlink:href="#path-1"></use>
                    <use fill="#00B6A4" fill-rule="evenodd" xlink:href="#path-1"></use>
                </g>
                <g id="Group-19" transform="translate(25.000000, 10.000000)" fill="#FFFFFF">
                    <path d="M13.9592716,0.295023643 C14.5976493,-0.0983412142 15.402391,-0.0983412142 16.0407687,0.295023643 L23.9549004,5.17226023 L28.1697819,7.76976866 C29.6985156,8.71205629 28.8772347,10.6909091 26.9573995,10.6909091 L14.9999391,10.6909091 L3.04264082,10.6909091 C1.12264342,10.6909091 0.301524688,8.71205629 1.83025837,7.76976866 L6.04513993,5.17226023 L13.9592716,0.295023643 Z" id="Fill-1"></path>
                    <path d="M7.24137931,24.4363636 L3.10344828,24.4363636 C3.26955785,19.8545455 3.43550646,15.2727273 3.60177699,10.6909091 C4.6364207,10.7025986 5.67138634,10.7142881 6.70619102,10.7259777 C6.88453346,15.2961063 7.06303686,19.866235 7.24137931,24.4363636" id="Fill-3"></path>
                    <path d="M7.43095343,12.2181818 L2.91387415,12.2181818 C2.73293609,12.2181818 2.5862069,12.0934512 2.5862069,11.9396406 L2.5862069,10.9694503 C2.5862069,10.8156397 2.73293609,10.6909091 2.91387415,10.6909091 L7.43095343,10.6909091 C7.61189149,10.6909091 7.75862069,10.8156397 7.75862069,10.9694503 L7.75862069,11.9396406 C7.75862069,12.0934512 7.61189149,12.2181818 7.43095343,12.2181818" id="Fill-5"></path>
                    <path d="M29.1972553,27 L0.802580758,27 C0.359251995,27 0,26.6062707 0,26.1203958 L0,25.8435998 C0,25.3575453 0.359251995,24.9636364 0.802580758,24.9636364 L29.1972553,24.9636364 C29.6405841,24.9636364 30,25.3575453 30,25.8435998 L30,26.1203958 C30,26.6062707 29.6405841,27 29.1972553,27" id="Fill-7"></path>
                    <path d="M27.672496,25.9636364 L1.29302123,25.9636364 C0.864517143,25.9636364 0.517241379,25.5842767 0.517241379,25.1160047 L0.517241379,24.7749044 C0.517241379,24.3066323 0.864517143,23.9272727 1.29302123,23.9272727 L27.672496,23.9272727 C28.1008357,23.9272727 28.4482759,24.3066323 28.4482759,24.7749044 L28.4482759,25.1160047 C28.4482759,25.5842767 28.1008357,25.9636364 27.672496,25.9636364" id="Fill-9"></path>
                    <path d="M17.0689655,24.4363636 L12.9310345,24.4363636 C13.0971441,19.8545455 13.2630927,15.2727273 13.4293632,10.6909091 C14.4640069,10.7025986 15.4989725,10.7142881 16.5337772,10.7259777 C16.7121197,15.2961063 16.8906231,19.866235 17.0689655,24.4363636" id="Fill-11"></path>
                    <path d="M17.2585503,12.2181818 L12.7416174,12.2181818 C12.5606852,12.2181818 12.4137931,12.0934512 12.4137931,11.9396406 L12.4137931,10.9694503 C12.4137931,10.8156397 12.5606852,10.6909091 12.7416174,10.6909091 L17.2585503,10.6909091 C17.4394825,10.6909091 17.5862069,10.8156397 17.5862069,10.9694503 L17.5862069,11.9396406 C17.5862069,12.0934512 17.4394825,12.2181818 17.2585503,12.2181818" id="Fill-13"></path>
                    <path d="M26.3793103,24.4363636 L22.2413793,24.4363636 C22.4074889,19.8545455 22.5734375,15.2727273 22.739708,10.6909091 C23.7743517,10.7025986 24.8093174,10.7142881 25.844122,10.7259777 C26.0224645,15.2961063 26.2009679,19.866235 26.3793103,24.4363636" id="Fill-15"></path>
                    <path d="M26.5688951,12.2181818 L22.0519623,12.2181818 C21.8710301,12.2181818 21.7241379,12.0934512 21.7241379,11.9396406 L21.7241379,10.9694503 C21.7241379,10.8156397 21.8710301,10.6909091 22.0519623,10.6909091 L26.5688951,10.6909091 C26.7498273,10.6909091 26.8965517,10.8156397 26.8965517,10.9694503 L26.8965517,11.9396406 C26.8965517,12.0934512 26.7498273,12.2181818 26.5688951,12.2181818" id="Fill-17"></path>
                </g>
                <text id="查看分行" font-family="DFHeiStd-W7, DFHei Std" font-size="14" font-weight="bold" letter-spacing="0.7" fill="#FFFFFF">
                    <tspan x="11" y="57">查看分行</tspan>
                </text>
                <g id="Group-3" transform="translate(47.000000, 29.000000)">
                    <mask id="mask-4" fill="white">
                        <use xlink:href="#path-3"></use>
                    </mask>
                    <g id="Clip-2"></g>
                    <path d="M10.0620813,2.8916884 C10.1233125,3.06006563 10.0773891,3.22146866 9.92431119,3.3768938 L8.59253323,4.50272973 C8.47007089,4.60734281 8.41001724,4.72391166 8.41001724,4.85343261 C8.41001724,4.98295356 8.47007089,5.09952241 8.59253323,5.20214285 L12.8163065,8.77592471 C12.9387688,8.87954147 13,8.99611032 13,9.12563127 C13,9.25614853 12.9387688,9.37172107 12.8163065,9.47434151 L10.016158,11.8445749 C9.89369561,11.9481916 9.75592547,12 9.60284755,12 C9.44976962,12 9.31199949,11.9481916 9.18953715,11.8445749 L4.96576389,8.27079301 C4.84330155,8.19308044 4.70553141,8.15422416 4.55363101,8.15422416 C4.39937556,8.15422416 4.26160543,8.19308044 4.14032061,8.27079301 L2.80854264,9.43548523 C2.62484913,9.56600249 2.42584783,9.60485877 2.21153873,9.5530504 C1.99722963,9.50124202 1.8594595,9.37172107 1.79822833,9.16448755 L0.00839410527,1.58950472 C-0.0222214801,1.4091717 0.030767033,1.25972446 0.16971469,1.1431556 C0.306307301,1.02658675 0.482935678,0.981752574 0.697244776,1.00666045 L9.64877093,2.52205554 C9.86308002,2.59976811 10.0008502,2.72331117 10.0620813,2.8916884" id="Fill-1" fill="#1C706E" mask="url(#mask-4)" transform="translate(6.500000, 6.500000) rotate(12.000000) translate(-6.500000, -6.500000) "></path>
                </g>
            </g>
        </g>
    </g>
</svg>