<?xml version="1.0" encoding="UTF-8"?>
<svg width="227px" height="29px" viewBox="0 0 227 29" version="1.1" xmlns="http://www.w3.org/2000/svg" xmlns:xlink="http://www.w3.org/1999/xlink">
    <title>Group 2</title>
    <defs>
        <polygon id="path-1" points="5.68434189e-14 28.275 225.803722 28.275 225.803722 0.477775 5.68434189e-14 0.477775"></polygon>
    </defs>
    <g id="Page-1" stroke="none" stroke-width="1" fill="none" fill-rule="evenodd">
        <g id="設計稿-" transform="translate(-174.000000, -108.000000)">
            <g id="Page-1" transform="translate(174.000000, 108.000000)">
                <polygon id="Fill-1" fill="#009D96" points="117.099366 9.18333333 127.657505 9.18333333 127.657505 5.8 117.099366 5.8"></polygon>
                <g id="Group-25">
                    <path d="M116.271607,6.8903275 C114.832658,8.7253025 112.979444,10.6472775 111.011319,11.8986275 L109.630924,9.0754775 C111.157703,8.1126775 112.597384,6.6583275 113.773574,5.2025275 C114.596249,5.7549775 115.418924,6.3378775 116.271607,6.8903275 Z" id="Fill-2" fill="#009D96"></path>
                    <polygon id="Fill-4" fill="#009D96" points="70.5468474 20.426005 74.8073364 20.426005 74.8073364 8.14233 77.86309 8.14233 77.86309 24.50123 74.8073364 24.50123 74.8073364 23.394155 63.0827576 23.36588 63.0534809 24.413505 59.9098973 24.413505 59.9098973 7.99733 63.0534809 7.99733 63.0534809 20.426005 67.3739871 20.39628 67.3739871 5.318455 70.5468474 5.318455"></polygon>
                    <polygon id="Fill-6" fill="#009D96" points="52.7349146 8.7141375 45.8043923 8.7257375 45.7458389 8.7837375 45.7458389 12.9749625 52.2694154 13.0315125 52.2694154 16.0011125 45.7165622 16.0011125 45.6865536 21.2696875 53.5912576 21.2979625 53.5912576 24.3270125 34.6382661 24.3270125 34.6382661 21.3276875 42.5129614 21.2979625 42.5129614 16.0308375 36.0464745 16.0011125 36.0464745 13.0017875 42.5129614 13.0017875 42.5129614 8.6960125 35.6080562 8.6365625 35.6080562 5.6684125 52.7385742 5.6684125"></polygon>
                    <path d="M211.952632,20.0110875 C211.97093,20.0480625 212.026555,20.0292125 212.063151,20.0292125 L212.082913,14.4169875 L214.100076,14.4169875 L214.100076,23.6426125 L212.082913,23.6426125 L208.52726,17.6997875 L208.471634,17.7179125 L208.471634,23.6426125 L206.472037,23.6426125 L206.472037,14.4169875 L208.674375,14.4351125 L211.952632,20.0110875 Z" id="Fill-8" fill="#009D96"></path>
                    <g id="Group-12" transform="translate(217.379357, 13.775000)" fill="#009D96">
                        <path d="M2.33269276,4.034915 C2.38905037,4.05304 2.50030176,4.072615 2.55519554,4.01679 L5.64681306,0.66004 L8.16533956,0.66004 L4.70190818,4.255315 L4.72166994,4.530815 L8.42443818,9.88494 L6.14671239,9.90524 C5.1842415,8.566165 4.25909838,7.15314 3.27686573,5.814065 L3.12901849,5.83219 L2.33269276,6.584015 L2.33269276,9.88494 L0.314797514,9.88494 L0.314797514,0.641915 L2.33269276,0.641915 L2.33269276,4.034915 Z" id="Fill-10"></path>
                    </g>
                    <path d="M128.849967,11.665105 L128.849967,14.459255 L125.96841,14.459255 L125.909125,22.46398 C125.792018,23.073705 125.294314,23.627605 124.73513,23.88933 C123.411092,24.44178 121.737929,24.239505 120.267508,24.239505 L119.121326,21.327905 L122.649166,21.269905 C122.79555,21.213355 122.912656,21.037905 122.971942,20.89218 L123.000486,14.48898 L116.242696,14.42953 C116.212688,13.732805 116.271241,13.002005 116.182679,12.36328 C115.919189,12.85773 115.566405,13.352905 115.213621,13.81908 L115.213621,24.413505 L112.274974,24.413505 C112.244966,22.113805 112.304983,19.78583 112.244966,17.48613 C111.74653,17.86603 111.276639,18.33003 110.804553,18.738205 L109.483443,15.594605 C111.481576,14.138805 112.949802,12.12983 114.156001,10.151305 L116.242696,11.63538 L128.849967,11.665105 Z" id="Fill-13" fill="#009D96"></path>
                    <path d="M198.89816,20.1584075 C199.231914,19.0020325 199.601532,17.8659575 199.971882,16.7291575 L200.009942,16.7291575 C200.361994,17.8659575 200.76528,19.0295825 201.079272,20.1678325 C200.987051,20.1982825 199.61983,20.1395575 198.89816,20.1584075 L198.89816,20.1584075 Z M200.970949,14.3627575 L198.89816,14.3627575 L195.676261,23.4593325 L195.638933,23.6601575 L197.731484,23.6601575 L198.250413,22.0463075 C198.287009,21.9375575 198.287009,21.8259075 198.379962,21.7345575 L201.657487,21.7534075 L202.267174,23.6427575 L204.341427,23.6427575 L204.341427,23.6231825 L200.970949,14.3627575 Z" id="Fill-15" fill="#009D96"></path>
                    <path d="M96.6999994,13.031585 C96.553616,12.82931 96.6114375,12.33341 96.6714547,12.071685 L99.9043322,12.071685 C100.109269,12.27541 99.9914303,12.68431 100.020707,12.975035 C98.9630869,13.091035 97.78836,13.031585 96.6999994,13.031585 L96.6999994,13.031585 Z M96.465786,20.774585 L96.465786,15.740185 C96.6414461,15.59446 97.259184,15.47701 97.2006307,15.943185 C97.4348441,17.456985 97.78836,18.91351 98.4046342,20.280135 C97.78836,20.48531 97.1406135,20.718035 96.465786,20.774585 L96.465786,20.774585 Z M96.6114375,8.66636 L96.7592847,8.551085 L99.9328769,8.551085 C100.080724,8.78381 99.9914303,9.160085 100.020707,9.481985 L99.9328769,9.539985 L96.7592847,9.539985 C96.465786,9.42326 96.6714547,8.95781 96.6114375,8.66636 L96.6114375,8.66636 Z M93.6142372,21.26976 L92.9686864,21.26976 C92.9394097,20.892035 92.9972312,20.512135 92.9394097,20.165585 C92.8208392,20.19386 92.7930263,20.046685 92.7630177,19.988685 C93.0557845,19.02951 93.1736232,18.038435 93.3800238,17.078535 C92.7030005,16.846535 91.9696197,16.69936 91.234775,16.55436 L90.617037,19.52251 L90.6763223,19.669685 L92.3224037,20.046685 C91.7053976,20.223585 91.1162044,20.396135 90.4113683,20.42586 L90.4113683,16.26436 L93.1458103,16.26436 L93.1736232,13.643485 L90.4713855,13.585485 L90.4713855,12.94676 C91.0883916,12.88731 91.7354062,12.917035 92.380957,12.917035 C92.4687871,12.56686 92.4109656,12.189135 92.4402423,11.809235 C92.5866257,11.66496 92.7330091,11.92741 92.8793925,11.92741 C93.2043637,11.519235 93.3522109,10.99506 93.6142372,10.58761 L93.6142372,21.26976 Z M89.2373734,8.72581 C89.7072641,9.18981 90.2649849,9.655985 90.5006622,10.237435 L88.20903,10.26716 C88.5025287,9.713985 88.8545808,9.219535 89.2373734,8.72581 L89.2373734,8.72581 Z M102.666587,20.774585 C102.43091,20.834035 102.548748,20.570135 102.342348,20.570135 C102.284526,20.36786 102.078858,20.30986 101.930279,20.165585 C101.873189,19.96186 101.637512,19.96186 101.666056,19.669685 C101.75535,19.64141 101.666056,19.378235 101.873189,19.495685 L101.873189,19.40796 C102.136679,19.29196 102.313071,19.11651 102.548748,18.97151 C102.60657,18.883785 102.754417,18.883785 102.783694,18.766335 C102.813702,18.73806 102.871524,18.766335 102.931541,18.73806 L102.931541,18.68006 C102.959354,18.62206 103.047916,18.651785 103.077924,18.651785 L103.077924,18.56261 C103.106469,18.50461 103.165754,18.56261 103.195763,18.534335 L103.195763,18.474885 C103.223576,18.418335 103.312138,18.44806 103.342146,18.44806 L103.342146,18.360335 C103.399968,18.300885 103.459985,18.33061 103.517075,18.33061 L103.517075,18.24216 C103.517075,18.213885 103.577092,18.24216 103.6071,18.213885 L103.6071,18.155885 C103.635645,18.097885 103.69493,18.12761 103.724939,18.12761 L103.724939,17.89416 C103.487798,17.83616 103.6071,17.48671 103.342146,17.426535 C103.254316,17.426535 103.370691,17.252535 103.223576,17.311985 C103.106469,17.194535 103.135746,17.020535 102.988631,16.962535 C102.931541,16.87626 102.901532,16.729085 102.813702,16.671085 C102.695132,16.584085 102.695132,16.38036 102.548748,16.352085 C102.488731,16.060635 102.284526,15.885185 102.107402,15.740185 C102.048849,15.798185 102.020304,15.885185 101.901734,15.856185 C101.901734,15.885185 101.930279,15.943185 101.873189,15.943185 C101.519673,16.08891 101.284728,16.49636 100.901935,16.642085 C100.78556,16.81826 100.579892,16.87626 100.4035,16.99226 C100.139278,17.078535 100.16709,16.846535 100.080724,16.75881 C100.020707,16.38036 99.6986635,15.856185 100.050716,15.59446 L102.988631,15.59446 L102.988631,5.668485 L93.6742544,5.668485 L93.6142372,8.636635 C92.2938589,7.93846 91.2640517,6.54066 90.5577517,5.31831 L87.9433441,5.31831 C87.0921246,6.89011 85.8281039,8.40391 84.301325,9.599435 C84.6241004,10.617335 84.9761525,11.693235 85.3867579,12.71331 L86.1508793,12.248585 C86.2987265,12.39286 86.2101646,12.68431 86.2401732,12.88731 L87.7376754,12.917035 C87.7091307,13.149035 87.7376754,13.41076 87.7091307,13.643485 L84.7697519,13.643485 L84.7697519,16.20491 L87.7376754,16.26436 L87.7091307,20.950035 L87.1799546,21.183485 L84.6819218,21.38721 L84.8297691,24.29736 C87.3563466,23.94791 89.8536475,23.481735 92.2938589,22.95901 C92.7630177,23.16346 92.4987957,23.80291 92.5866257,24.23936 C92.7930263,24.35681 93.2043637,24.29736 93.4085686,24.23936 C93.8499145,24.29736 93.9670212,23.977635 94.409831,24.095085 C94.5262059,23.860185 94.9668199,24.095085 95.1132033,23.918185 C95.7016646,23.860185 96.200832,23.715185 96.7314719,23.597735 C97.0535154,23.51291 97.4348441,23.51291 97.7290748,23.365735 C98.0525821,23.27946 98.5224728,23.33601 98.7574182,23.10401 L98.7574182,21.241485 L98.9052654,21.15376 C99.0794617,21.241485 99.1694875,21.38721 99.1994961,21.59021 C99.3751562,21.64821 99.4037009,21.88166 99.5808248,21.969385 C99.6686549,21.969385 99.5515482,22.17166 99.6986635,22.11366 C99.6986635,22.405835 100.050716,22.31956 100.050716,22.60956 C100.314938,22.66756 100.314938,22.987285 100.549883,23.04601 C100.637713,23.27946 100.844114,23.33601 100.990497,23.481735 C101.020506,23.715185 101.314736,23.657185 101.314736,23.88991 C101.549682,24.00591 101.726074,24.12191 101.901734,24.29736 C102.107402,24.267635 102.020304,24.35681 102.225973,24.29736 C102.342348,24.095085 102.488731,23.918185 102.577293,23.68546 C102.695132,23.597735 102.754417,23.423735 102.871524,23.365735 C102.931541,23.249735 103.017907,23.191735 103.017907,23.04601 C103.165754,23.04601 103.165754,22.869835 103.223576,22.78501 C103.370691,22.579835 103.517075,22.405835 103.635645,22.143385 C103.752752,22.143385 103.752752,21.99766 103.841314,21.88166 L103.841314,21.70766 C103.429976,21.415485 102.959354,21.183485 102.666587,20.774585 L102.666587,20.774585 Z" id="Fill-17" fill="#009D96"></path>
                    <path d="M85.3866847,20.8338175 C85.8580393,20.7475425 86.3264662,20.6300925 86.7978208,20.5423675 C86.9734809,20.4560925 87.2677115,20.4858175 87.3255329,20.3096425 C87.3562735,19.1162925 87.0620428,17.9802175 87.0034894,16.8760425 C86.7092588,16.6708675 86.3564748,16.8760425 86.0344313,16.9028675 C85.6216301,16.9920425 85.2388375,17.1080425 84.8296959,17.1943175 L85.0346326,20.8338175 L85.1224627,20.8918175 C85.2388375,20.8918175 85.3588719,20.9498175 85.3866847,20.8338175" id="Fill-19" fill="#009D96"></path>
                    <path d="M50.3597707,17.660565 C50.6239927,18.068015 50.7118228,18.621915 50.5939841,19.14609 C50.4461369,19.69999 49.9176928,20.27999 49.3607039,20.425715 C48.5965826,20.65989 47.8617379,20.39599 47.3325619,19.844265 C47.0090545,19.464365 46.890484,18.998915 46.9219564,18.47474 C46.9790459,17.776565 47.5389625,17.07839 48.2145219,16.90294 C49.0057242,16.67094 49.889148,16.932665 50.3597707,17.660565" id="Fill-21" fill="#009D96"></path>
                    <path d="M191.166627,21.6622025 C190.43837,22.3524025 189.481022,22.0457275 188.296049,22.0653025 L188.296049,19.6626525 L190.562064,19.6488775 C190.857758,19.7395025 191.149061,19.9200275 191.332772,20.1940775 C191.406696,20.6522775 191.536245,21.3113025 191.166627,21.6622025 L191.166627,21.6622025 Z M188.296049,15.9390525 C189.34269,16.0101025 190.885571,15.6592025 191.203955,16.6553525 C191.240551,17.0758525 191.240551,17.5362275 190.870201,17.8102775 C190.704056,17.9378775 190.518149,18.0299525 190.296378,18.0299525 L188.296049,18.0299525 L188.296049,15.9390525 Z M191.962221,18.7636525 L191.962221,18.6353275 C192.259379,18.5070025 192.536044,18.2684775 192.758547,18.0118275 C193.240148,17.3876025 193.240148,16.3805775 192.907858,15.7012525 C192.480418,14.8762025 191.609437,14.5644525 190.777247,14.4346775 L186.222528,14.4172775 L186.222528,23.6421775 L190.925827,23.6421775 C191.406696,23.5870775 191.869999,23.4768775 192.295975,23.2390775 C193.037407,22.8171275 193.407757,22.0834275 193.499247,21.3127525 C193.574634,20.2129275 192.888096,19.2595525 191.962221,18.7636525 L191.962221,18.7636525 Z" id="Fill-23" fill="#009D96"></path>
                    <g id="Group-27" transform="translate(0.000000, -0.000000)" fill="#009D96">
                        <path d="M27.4387643,9.2777525 C29.5540045,14.6036025 28.0557703,20.8922525 23.7645408,24.6455775 C20.0632364,27.9646275 14.5658076,29.1884275 9.65976774,27.5571775 C4.1645347,25.7533775 0.316114964,20.8335275 0.0204204851,15.0705025 C-0.272346326,9.6272025 2.60628334,4.7080775 7.42595697,2.1154775 C11.8350251,-0.3864975 18.4464317,0.0209525 22.4727072,3.0485525 C24.6765094,4.5326275 26.4389656,6.8620525 27.4387643,9.2777525" id="Fill-25"></path>
                    </g>
                    <path d="M13.5080411,6.9497775 C14.0094043,6.8026025 14.6542232,6.4256025 15.1548544,6.8026025 C15.5069065,7.3289525 16.4774285,7.5036775 16.2124745,8.2301275 C16.7131058,8.8398525 17.2708265,9.5394775 17.9171093,10.0056525 C18.0656884,10.0339275 18.1235099,9.9476525 18.1820632,9.8599275 L18.0056712,9.7736525 C18.2120718,9.5989275 18.7097754,9.8882025 19.0332827,9.7142025 C19.2389514,9.7142025 19.533914,9.7736525 19.6802974,9.9759275 C19.8281446,10.2079275 19.8566894,10.4993775 20.06309,10.7321025 L20.1801967,10.6755525 C20.3265801,10.9358275 20.3851335,11.1692775 20.5615255,11.4034525 C21.6206094,11.7514525 22.1190449,13.0020775 23.0595583,13.5255275 C24.2057404,14.3708775 25.4097439,15.2162275 26.7630585,15.7106775 C26.7030413,15.8846775 26.9101738,15.8846775 26.99654,15.9426775 L26.99654,15.9724025 C26.8194161,15.8846775 26.5866665,15.7984025 26.4088106,15.8564025 C26.5866665,16.1181275 27.0280124,16.0006775 27.1158425,16.2943025 L26.6452198,16.2943025 C26.6452198,16.3805775 26.7630585,16.3805775 26.8194161,16.4088525 C26.5866665,16.3225775 26.3509892,16.4965775 26.2046058,16.2051275 C25.2340838,15.7984025 24.3513919,15.2162275 23.5001724,14.6927775 L23.4701638,14.7225025 C24.147187,15.3612275 25.0862366,15.8252275 25.8518218,16.2645775 C26.1167757,16.4088525 26.4988364,16.4965775 26.6452198,16.7583025 C26.555194,16.7880275 26.4088106,16.7880275 26.3809978,16.9033025 L26.1745972,16.7880275 C26.1167757,16.8177525 26.1745972,16.8757525 26.1445886,16.9033025 L26.290972,17.0207525 C25.2933691,16.6125775 24.1757318,16.0006775 23.2659589,15.2742275 C22.8246129,14.9827775 22.383267,14.7507775 21.9433848,14.4288775 C21.8833676,14.4288775 21.7970014,14.4006025 21.7669928,14.4883275 C22.2668922,14.8667775 22.7953363,15.0987775 23.2937718,15.4489525 C22.383267,15.0125025 21.2971021,14.3708775 20.5615255,13.4987025 C20.2387501,13.1775275 19.7681274,12.5076275 19.2096747,12.6250775 C19.0032741,12.7410775 18.6804987,12.7128025 18.4462853,12.8288025 C18.2698933,12.8288025 18.1235099,12.6250775 17.9449221,12.7722525 C17.7992706,13.0912525 17.3301118,12.8288025 17.2408179,13.1775275 C16.9473192,13.2949775 16.4188751,13.2087025 16.3303132,13.5552525 L16.3588579,13.7024275 C15.7718605,13.9648775 14.9784624,13.8771525 14.5656612,14.4288775 C14.4492864,14.5470525 14.2150729,14.4006025 14.0972343,14.5470525 C14.1257791,14.4883275 14.0686895,14.4288775 14.0094043,14.4288775 C13.8608251,14.3708775 13.773727,14.5173275 13.6558883,14.5470525 C13.5680583,14.4006025 13.773727,14.3708775 13.7444503,14.2846025 C13.4802282,14.1671525 13.3623896,14.5173275 13.155989,14.6333275 C13.1859976,14.4006025 13.4516835,14.3708775 13.5387816,14.1671525 C13.3916663,14.0794275 13.2738276,14.2266025 13.155989,14.2563275 C13.2160062,14.2266025 13.332381,14.0228775 13.155989,14.0228775 C13.3038362,13.7894275 13.6280755,13.8771525 13.7144417,13.6147025 L13.4802282,13.6147025 C13.7144417,13.4407025 13.9793957,13.2369775 14.1850643,13.0615275 C14.0972343,13.0615275 13.9201104,12.8288025 13.773727,13.0318025 C13.773727,13.0020775 13.8322803,12.9752525 13.8037356,12.9462525 C13.6858969,12.8288025 13.5387816,13.0318025 13.3916663,13.0318025 C13.3916663,13.0615275 13.4216749,12.9462525 13.332381,12.9165275 L13.2452829,12.9165275 C13.332381,12.8570775 13.4516835,12.7128025 13.5680583,12.6250775 L13.5080411,12.5670775 C13.950119,12.3053525 14.3900011,12.0131775 14.832079,11.8094525 L14.9191771,11.7246275 C14.8028023,11.5774525 14.5656612,11.5774525 14.4492864,11.7246275 C14.832079,11.6934525 14.479295,11.2852775 14.8620876,11.2272775 C14.9191771,10.9075525 15.2148716,10.6755525 15.4483531,10.5291025 C15.0670244,10.1796525 14.9191771,9.5394775 14.479295,9.3357525 C14.4492864,9.0754775 14.1850643,9.3357525 14.1572515,9.0754775 C13.6280755,9.0457525 13.0096056,9.3074775 12.6568216,8.8398525 C12.3925995,8.7535775 12.0398155,8.7833025 11.7755935,8.8115775 C11.5406481,9.0160275 11.4520862,9.3074775 11.3057028,9.5394775 C11.0700255,9.7142025 10.9536507,10.0056525 10.7772587,10.2673775 C10.5108409,10.6175525 10.1887974,11.0532775 9.71890664,11.2004525 L9.71890664,11.1410025 C9.39539931,11.5774525 8.69056321,11.4034525 8.27922584,11.8689025 L8.24921725,11.7514525 C8.10137001,11.7246275 7.9849952,11.8094525 7.9549866,11.9269025 L7.9549866,11.9834525 C7.75078175,11.9269025 7.60293451,12.1603525 7.51437255,12.2756275 C7.01520514,12.7990775 6.19179848,12.7990775 5.66262247,13.2369775 C5.60480102,13.2652525 5.69116723,13.2369775 5.66262247,13.2087025 C4.69356432,13.4109775 4.22294168,14.1388775 3.57592702,14.8370525 C3.39953502,15.1270525 3.10676821,15.3039525 2.87109093,15.5366775 C2.9303762,15.7701275 2.5775922,15.8564025 2.45975356,15.9724025 C2.5775922,15.7701275 2.84254616,15.5946775 2.87109093,15.3612275 C2.63614556,15.4772275 2.5775922,15.7404025 2.31337015,15.8564025 C2.16771866,15.7404025 2.45975356,15.6526775 2.37192351,15.5366775 L2.01987142,15.7984025 L2.34191491,15.3612275 C2.16771866,15.3909525 1.98986282,15.6809525 1.78419414,15.7106775 C1.72637269,15.7984025 1.63707882,15.7984025 1.51997209,15.7984025 L1.51997209,15.7701275 C1.63707882,15.6809525 1.8427475,15.4772275 2.01987142,15.3039525 C1.8127389,15.1865025 1.57852545,15.4489525 1.43214205,15.4192275 C1.3743206,15.3909525 1.40213345,15.2459525 1.25575004,15.3039525 C1.40213345,15.1865025 1.54851686,15.0987775 1.60707022,14.9247775 C1.49069541,14.8950525 1.34431201,14.9827775 1.22647336,15.0407775 C1.25575004,14.8950525 1.54851686,14.8087775 1.46068681,14.5753275 C1.07862612,14.5173275 1.1379114,14.8950525 0.815135994,14.9827775 C1.1379114,14.5470525 1.60707022,14.2846025 1.93130946,13.8191525 L1.90349661,13.7894275 C2.51830692,13.1195275 3.28316021,12.7128025 4.04654967,12.2756275 C4.66355573,11.9269025 5.48696238,11.7514525 5.92757643,11.1692775 C6.10396844,10.9358275 6.28036044,10.7321025 6.39819908,10.4993775 C6.48676104,10.5291025 6.51603772,10.4413775 6.54458249,10.3833775 C6.98519654,10.1231025 7.45581919,9.9476525 7.9849952,9.9476525 C8.21920865,9.7142025 8.66201845,9.8599275 8.8362147,9.5394775 C9.45322076,8.8115775 9.68816612,7.9096775 10.218806,7.1817775 C10.3944661,6.9497775 10.5994028,6.5706025 10.9536507,6.4836025 C11.8348788,6.5706025 12.6868302,6.7163275 13.5080411,6.9497775" id="Fill-28" fill="#FEFEFE"></path>
                    <polygon id="Fill-30" fill="#009D96" points="20.06309 10.4119425 19.9445194 10.0342175 20.06309 10.3553925"></polygon>
                    <path d="M20.2675144,10.99535 C20.1511396,10.965625 20.1804163,10.87935 20.121131,10.791625 C20.1804163,10.82135 20.2389697,10.907625 20.2675144,10.99535" id="Fill-32" fill="#009D96"></path>
                    <path d="M6.25035184,11.20067 C6.16398563,11.02377 6.39819908,10.96577 6.48676104,10.821495 C6.45602053,10.96577 6.36819048,11.111495 6.25035184,11.20067" id="Fill-34" fill="#009D96"></path>
                    <polygon id="Fill-36" fill="#009D96" points="9.07145284 11.2572925 9.07145284 11.2275675 9.15928288 11.2275675"></polygon>
                    <path d="M8.45539827,11.43151 C8.39611299,11.48951 8.3661044,11.577235 8.27973819,11.54751 C8.27973819,11.459785 8.39611299,11.37496 8.45539827,11.43151" id="Fill-38" fill="#009D96"></path>
                    <path d="M14.0970147,11.92712 C13.9506313,12.04312 13.6556688,12.129395 13.6278559,12.304845 C13.36217,12.27512 13.185778,12.53757 12.9793774,12.53757 C13.0101179,12.304845 13.36217,12.451295 13.3914467,12.21712 L13.6278559,12.04312 L13.6556688,12.129395 C13.7449626,12.04312 14.0384614,12.10112 13.9506313,11.86912 L14.0970147,11.92712 Z" id="Fill-40" fill="#FEFEFE"></path>
                    <path d="M13.155623,12.101265 C13.0970697,12.217265 12.979231,12.30499 12.8335796,12.333265 C12.8928648,12.18899 13.0099716,12.18899 13.155623,12.101265" id="Fill-42" fill="#009D96"></path>
                    <path d="M7.1037671,12.451005 C7.16158854,12.53728 7.04521374,12.451005 7.01520514,12.507555 C7.04521374,12.47928 7.0737585,12.451005 7.1037671,12.451005" id="Fill-44" fill="#009D96"></path>
                    <mask id="mask-2" fill="white">
                        <use xlink:href="#path-1"></use>
                    </mask>
                    <g id="Clip-47"></g>
                    <polygon id="Fill-46" fill="#009D96" mask="url(#mask-2)" points="13.7146613 12.6846 13.8039551 12.6846 13.8039551 12.595425 13.7146613 12.595425"></polygon>
                    <path d="M13.5966762,12.7993675 C13.5966762,12.8573675 13.5388548,12.8573675 13.5081143,12.9168175 L13.4217481,12.9168175 C13.3917395,12.8290925 13.4803014,12.7993675 13.5388548,12.7725425 C13.5681315,12.7725425 13.5681315,12.7993675 13.5966762,12.7993675" id="Fill-48" fill="#009D96" mask="url(#mask-2)"></path>
                    <path d="M14.1570319,13.35305 C14.1255595,13.4705 13.9791761,13.4705 13.9206227,13.498775 C13.8327927,13.4705 13.9506313,13.440775 13.9506313,13.381325 C14.0384614,13.41105 14.06847,13.323325 14.1570319,13.35305" id="Fill-49" fill="#009D96" mask="url(#mask-2)"></path>
                    <path d="M14.2149266,13.525745 C14.184918,13.643195 13.9792493,13.643195 13.8614106,13.73237 C13.8328659,13.61492 14.0092579,13.55547 14.0970879,13.49892 C14.1256327,13.525745 14.2149266,13.49892 14.2149266,13.525745" id="Fill-50" fill="#009D96" mask="url(#mask-2)"></path>
                    <path d="M21.2668007,13.8188625 C21.3846394,13.8768625 21.4431927,14.0225875 21.5310228,14.1088625 L21.4431927,14.1965875 C21.238256,13.9943125 21.1204173,13.7891375 21.0025787,13.5259625 C21.0904087,13.6151375 21.1504259,13.7608625 21.2668007,13.8188625" id="Fill-51" fill="#009D96" mask="url(#mask-2)"></path>
                    <path d="M25.4988914,15.3609375 C25.4095975,15.4189375 25.2932227,15.3043875 25.2053926,15.2746625 L25.4988914,15.3609375 Z" id="Fill-52" fill="#009D96" mask="url(#mask-2)"></path>
                    <path d="M26.3208342,15.798475 C26.0866208,15.65275 25.7623815,15.65275 25.5859895,15.4773 C25.8516754,15.507025 26.1166293,15.65275 26.3208342,15.798475" id="Fill-53" fill="#009D96" mask="url(#mask-2)"></path>
                    <polygon id="Fill-54" fill="#009D96" mask="url(#mask-2)" points="8.4031394 23.463175 8.05108731 23.2 8.28530076 23.316"></polygon>
                    <polygon id="Fill-55" fill="#009D96" mask="url(#mask-2)" points="26.2343948 16.6424475 26.2629396 16.5844475 26.3507696 16.6424475"></polygon>
                    <path d="M26.1164098,16.788245 L25.9985711,16.788245 L25.9985711,16.728795 C26.0271159,16.75852 26.0864012,16.75852 26.1164098,16.788245" id="Fill-56" fill="#009D96" mask="url(#mask-2)"></path>
                    <polygon id="Fill-57" fill="#009D96" mask="url(#mask-2)" points="136.128443 14.65718 142.814505 14.65718 142.814505 16.16663 137.941401 16.16663 137.941401 18.15168 142.474895 18.15168 142.474895 19.65968 137.941401 19.65968 137.941401 22.08118 142.979918 22.08118 142.979918 23.58918 136.128443 23.58918"></polygon>
                    <path d="M150.874009,20.5209075 C150.961107,20.9841825 151.201176,22.2268325 152.837743,22.2268325 C154.109083,22.2268325 154.615569,21.5685325 154.615569,20.9950575 C154.615569,20.2461325 153.983925,20.0859075 152.320277,19.6857075 C151.430266,19.4602325 149.439452,18.9730325 149.439452,17.0046575 C149.439452,16.0309825 150.081343,14.5128325 152.725027,14.5128325 C154.487484,14.5128325 156.098433,15.1943325 156.173821,17.2141825 L154.350615,17.2917575 C154.273764,16.8284825 154.139091,15.9911075 152.700874,15.9911075 C152.15706,15.9911075 151.178487,16.1542325 151.178487,16.8792325 C151.178487,17.4527075 151.742795,17.7013825 153.191259,18.0392325 C154.565067,18.3633075 156.428528,18.8012075 156.428528,20.9950575 C156.428528,22.0811075 155.733206,22.9917075 154.954447,23.3418825 C154.150802,23.7138075 153.239565,23.7399075 152.826032,23.7399075 C151.856242,23.7399075 149.464337,23.6543575 149.111553,20.6811325 L150.874009,20.5209075 Z" id="Fill-58" fill="#009D96" mask="url(#mask-2)"></path>
                    <path d="M161.47817,14.65718 L161.47817,19.48568 C161.47817,20.54563 161.47817,20.984255 161.706528,21.409105 C162.045405,22.042755 162.749509,22.192105 163.305766,22.192105 C165.04041,22.192105 165.04041,21.10823 165.04041,19.585005 L165.04041,14.65718 L166.854832,14.65718 L166.854832,19.350105 C166.854832,20.94438 166.793351,21.829605 166.353469,22.506755 C165.658148,23.56453 164.360459,23.73998 163.354073,23.73998 C159.664479,23.73998 159.664479,21.48233 159.664479,19.42478 L159.664479,14.65718 L161.47817,14.65718 Z" id="Fill-59" fill="#009D96" mask="url(#mask-2)"></path>
                    <polygon id="Fill-60" fill="#009D96" mask="url(#mask-2)" points="170.568579 14.65718 172.329571 14.65718 175.995744 20.623205 176.019897 20.623205 176.019897 14.65718 177.707698 14.65718 177.707698 23.58918 175.883761 23.58918 172.278337 17.76598 172.253452 17.76598 172.253452 23.58918 170.568579 23.58918"></polygon>
                    <path d="M147.473157,22.4459275 C147.473157,21.8086525 146.954228,21.2924525 146.311605,21.2924525 C145.668981,21.2924525 145.147856,21.8086525 145.147856,22.4459275 C145.147856,23.0839275 145.668981,23.5994025 146.311605,23.5994025 C146.954228,23.5994025 147.473157,23.0839275 147.473157,22.4459275" id="Fill-61" fill="#009D96" mask="url(#mask-2)"></path>
                </g>
            </g>
        </g>
    </g>
</svg>